<svg width="12" height="10" viewBox="0 0 12 10" fill="none" xmlns="http://www.w3.org/2000/svg">
<path d="M4.96325 9.49473C4.91008 9.44293 4.68275 9.24736 4.49575 9.06519C3.31967 7.99716 1.39467 5.21099 0.807083 3.75272C0.712667 3.53126 0.512833 2.97134 0.5 2.67219C0.5 2.38553 0.566 2.11227 0.699833 1.85152C0.886833 1.52647 1.18108 1.26571 1.5285 1.12283C1.76958 1.03085 2.491 0.887969 2.50383 0.887969C3.29308 0.745088 4.5755 0.666504 5.99267 0.666504C7.34292 0.666504 8.57308 0.745088 9.37425 0.862071C9.38708 0.875466 10.2836 1.01835 10.5907 1.17462C11.1517 1.46128 11.5 2.02119 11.5 2.62039V2.67219C11.4862 3.06243 11.1379 3.8831 11.1251 3.8831C10.5366 5.26279 8.706 7.98466 7.48958 9.07859C7.48958 9.07859 7.177 9.38667 6.98175 9.52062C6.70125 9.72959 6.35383 9.83317 6.00642 9.83317C5.61867 9.83317 5.2575 9.71619 4.96325 9.49473Z" fill="black"/>
</svg>
