<svg width="65" height="65" viewBox="0 0 65 65" fill="none" xmlns="http://www.w3.org/2000/svg">
<g opacity="0.08">
<rect width="65" height="65" rx="32.5" fill="#FA570E"/>
</g>
<g opacity="0.16">
<rect x="6.34143" y="6.3414" width="52" height="52" rx="26" fill="#FA570E"/>
</g>
<rect x="12.6828" y="12.6828" width="40" height="40" rx="20" fill="#FA570E"/>
<path d="M39.2699 33.955C39.1972 34.0296 38.9227 34.3486 38.667 34.6111C37.1682 36.2616 33.258 38.9632 31.2115 39.7878C30.9007 39.9203 30.1149 40.2007 29.695 40.2188C29.2928 40.2188 28.9093 40.1261 28.5433 39.9383C28.0871 39.6759 27.7212 39.2629 27.5207 38.7753C27.3916 38.437 27.1911 37.4246 27.1911 37.4066C26.9905 36.2989 26.8802 34.4992 26.8802 32.5103C26.8802 30.6153 26.9905 28.8889 27.1547 27.7645C27.1735 27.7465 27.374 26.4884 27.5933 26.0574C27.9956 25.2701 28.7814 24.7812 29.6224 24.7812H29.695C30.2427 24.8005 31.3944 25.2894 31.3944 25.3074C33.3307 26.1333 37.1506 28.7024 38.6858 30.4095C38.6858 30.4095 39.1182 30.8482 39.3062 31.1222C39.5995 31.5159 39.7448 32.0034 39.7448 32.491C39.7448 33.0352 39.5807 33.542 39.2699 33.955Z" fill="white"/>
</svg>
