<svg width="59" height="59" viewBox="0 0 59 59" fill="none" xmlns="http://www.w3.org/2000/svg">
<g clip-path="url(#clip0)">
<path d="M38.9382 41.3486L41.6361 36.9706L46.505 35.3101L47.0444 30.1964L50.7076 26.5901L48.966 21.7496L50.7076 16.9089L47.0445 13.3027L46.5051 8.18902L41.6362 6.52849L38.9383 2.15039L33.8351 2.76655L29.5001 0L25.1651 2.76678L20.0621 2.15062L17.3641 6.5286L12.4952 8.18913L11.9558 13.3028L8.2926 16.909L10.0343 21.7497L8.2926 26.5903L11.9557 30.1965L12.4951 35.3102L17.364 36.9708L20.062 41.3487L25.1651 40.7327L29.5001 43.4994L33.8351 40.7327L38.9382 41.3486ZM14.5854 21.7497C14.5854 13.5258 21.2762 6.83501 29.5001 6.83501C37.724 6.83501 44.4148 13.5258 44.4148 21.7497C44.4148 29.9736 37.724 36.6644 29.5001 36.6644C21.2762 36.6644 14.5854 29.9736 14.5854 21.7497Z" fill="#6E798C"/>
<path d="M29.5001 10.2943C23.1836 10.2943 18.0447 15.4332 18.0447 21.7498C18.0447 28.0663 23.1836 33.2052 29.5001 33.2052C35.8167 33.2052 40.9556 28.0663 40.9556 21.7498C40.9556 15.4332 35.8167 10.2943 29.5001 10.2943Z" fill="#6E798C"/>
<path d="M24.3489 44.3155L18.2784 45.0483L15.0711 39.8435L13.9807 39.4718L9.27765 54.1718L17.7445 53.7061L24.3687 59L28.2669 46.816L24.3489 44.3155Z" fill="#6E798C"/>
<path d="M43.9289 39.8437L40.7215 45.0483L34.6511 44.3155L30.7331 46.816L34.6312 59L41.2555 53.7061L49.7223 54.1718L45.0193 39.4718L43.9289 39.8437Z" fill="#6E798C"/>
</g>
<defs>
<clipPath id="clip0">
<rect width="59" height="59" fill="white"/>
</clipPath>
</defs>
</svg>
