<svg width="53" height="53" viewBox="0 0 53 53" fill="none" xmlns="http://www.w3.org/2000/svg">
<path fill-rule="evenodd" clip-rule="evenodd" d="M48.5479 19.008L50.4385 20.898C51.9353 22.368 52.7494 24.363 52.7494 26.463C52.7756 28.563 51.9616 30.5606 50.4911 32.0542C50.4736 32.0735 50.4561 32.0904 50.4386 32.1073C50.4298 32.1157 50.421 32.1242 50.4123 32.133L48.5479 33.9967C47.8126 34.7317 47.3924 35.7292 47.3924 36.7818V39.483C47.3924 43.8405 43.8474 47.3868 39.4883 47.3868H36.7836C35.7332 47.3868 34.7354 47.8042 34.0001 48.5392L32.1094 50.4292C30.5601 51.9806 28.5381 52.7392 26.5161 52.7392C24.4941 52.7392 22.4722 51.9806 20.9228 50.4581L19.0059 48.5392C18.2706 47.8042 17.2728 47.3868 16.2224 47.3868H13.5177C9.15858 47.3868 5.61355 43.8405 5.61355 39.483V36.7818C5.61355 35.7292 5.1934 34.7317 4.45813 33.9705L2.56744 32.1067C-0.504919 29.0381 -0.531179 24.0217 2.54119 20.9268L4.45813 19.008C5.1934 18.273 5.61355 17.2755 5.61355 16.1992V13.5217C5.61355 9.16421 9.15858 5.62309 13.5177 5.62309H16.2224C17.2728 5.62309 18.2706 5.20046 19.0059 4.46546L20.8966 2.57546C23.969 -0.519414 28.9845 -0.519414 32.0831 2.55184L34.0001 4.46546C34.7354 5.20046 35.7332 5.62309 36.7836 5.62309H39.4883C43.8474 5.62309 47.3924 9.16421 47.3924 13.5217V16.2281C47.3924 17.2755 47.8126 18.273 48.5479 19.008ZM19.741 35.5458C20.3713 35.5458 20.949 35.3096 21.3691 34.8633L34.8665 21.3734C35.7593 20.4809 35.7593 19.0083 34.8665 18.1158C33.9737 17.2259 32.5294 17.2259 31.6366 18.1158L18.1392 31.6083C17.2464 32.5008 17.2464 33.9708 18.1392 34.8633C18.5594 35.3096 19.1371 35.5458 19.741 35.5458ZM30.9541 33.2354C30.9541 34.5216 31.9782 35.5454 33.2649 35.5454C34.5254 35.5454 35.5495 34.5216 35.5495 33.2354C35.5495 31.978 34.5254 30.9516 33.2649 30.9516C31.9782 30.9516 30.9541 31.978 30.9541 33.2354ZM19.7675 17.4587C21.0279 17.4587 22.052 18.4824 22.052 19.7424C22.052 21.0313 21.0279 22.0524 19.7675 22.0524C18.507 22.0524 17.4566 21.0313 17.4566 19.7424C17.4566 18.4824 18.507 17.4587 19.7675 17.4587Z" fill="#FA0E0E"/>
</svg>
