<svg width="611" height="739" viewBox="0 0 611 739" fill="none" xmlns="http://www.w3.org/2000/svg">
<path d="M-1097.5 694.941C-1104.03 650.041 -1079.51 606.372 -1037.78 588.57L-338.441 290.261C-316.435 280.874 -291.793 279.688 -268.988 286.917L147.773 419.031C171.498 426.552 197.175 424.955 219.786 414.553L601.833 238.786C607.586 236.139 613.075 232.951 618.225 229.267L1007.87 -49.5144C1042.59 -74.3515 1089.24 -74.4162 1124.02 -49.6756L1490.48 210.984C1512.74 226.814 1527.55 251.057 1531.48 278.083L1646.97 1072.28L-986.942 1455.28L-1097.5 694.941Z" fill="#FEC07B" fill-opacity="0.1"/>
<path d="M-1101.41 668.078C-1107.84 623.862 -1084.16 580.746 -1043.39 562.453L-346.8 249.871C-323.467 239.401 -297.009 238.268 -272.867 246.706L141.715 391.601C166.83 400.378 194.408 398.786 218.346 387.176L596.326 203.854C602.323 200.945 608.014 197.444 613.315 193.404L997.119 -99.1913C1033.03 -126.565 1082.82 -126.482 1118.64 -98.9891L1489.41 185.627C1510.07 201.488 1523.73 224.784 1527.48 250.561L1652.47 1110.11L-981.441 1493.11L-1101.41 668.078Z" fill="#FEC07B" fill-opacity="0.1"/>
<path d="M-1111.75 596.973C-1118.18 552.772 -1094.52 509.67 -1053.77 491.366L-357.248 178.441C-333.884 167.944 -307.383 166.813 -283.209 175.28L131.322 320.479C156.47 329.288 184.094 327.696 208.063 316.056L585.947 132.553C591.949 129.639 597.645 126.13 602.948 122.081L986.616 -170.844C1022.55 -198.279 1072.42 -198.193 1108.26 -170.634L1479.13 114.559C1499.76 130.419 1513.39 153.693 1517.14 179.441L1642.35 1040.56L-991.557 1423.56L-1111.75 596.973Z" fill="#FEC07B" fill-opacity="0.1"/>
</svg>
