<svg width="131" height="131" viewBox="0 0 131 131" fill="none" xmlns="http://www.w3.org/2000/svg">
<path fill-rule="evenodd" clip-rule="evenodd" d="M77.0786 61.313H92.1864C94.4771 61.313 96.2769 59.4191 96.2769 57.1353C96.2769 54.7958 94.4771 52.9576 92.1864 52.9576H77.0786C74.7879 52.9576 72.988 54.7958 72.988 57.1353C72.988 59.4191 74.7879 61.313 77.0786 61.313ZM110.131 32.3541C113.458 32.3541 115.639 33.5238 117.821 36.0862C120.002 38.6485 120.384 42.3249 119.893 45.6615L114.712 82.2025C113.73 89.2266 107.84 94.4014 100.913 94.4014H41.4091C34.1552 94.4014 28.1557 88.7253 27.5557 81.3725L22.538 20.6509L14.3023 19.2026C12.1207 18.8127 10.5936 16.6403 10.9753 14.4122C11.3571 12.134 13.4842 10.6244 15.7204 10.9642L28.7284 12.9639C30.5828 13.3037 31.9463 14.8578 32.1099 16.7517L33.1462 29.2291C33.3098 31.0172 34.7279 32.3541 36.4732 32.3541H110.131ZM40.5353 103.205C35.9538 103.205 32.245 106.992 32.245 111.671C32.245 116.295 35.9538 120.083 40.5353 120.083C45.0621 120.083 48.7709 116.295 48.7709 111.671C48.7709 106.992 45.0621 103.205 40.5353 103.205ZM101.894 103.205C97.3121 103.205 93.6034 106.992 93.6034 111.671C93.6034 116.295 97.3121 120.083 101.894 120.083C106.42 120.083 110.129 116.295 110.129 111.671C110.129 106.992 106.42 103.205 101.894 103.205Z" fill="#230B34
"/>
</svg>
